<svg width="112" height="96" viewBox="0 0 112 96" fill="none" xmlns="http://www.w3.org/2000/svg">
  <ellipse cx="57" cy="49" rx="35" ry="15" transform="rotate(-22 57 49)" stroke="#7A4F13" stroke-width="4.5" stroke-linecap="round" stroke-dasharray="76 19"/>
  <circle cx="58" cy="49" r="19" fill="#7A4F13"/>
  <path d="M47 40C54.5 36.8 62.7 38.1 69.1 43.2C65.9 37.7 60.1 34 53.4 34C51 34 48.8 34.5 46.8 35.3C47.4 36.9 47.5 38.5 47 40Z" fill="#D8B56D"/>
  <path d="M25 78L43.6 33.8C44.7 31.2 48.2 30.8 49.8 33.1L58.5 45.4C59.8 47.4 59.3 50.1 57.2 51.4L25 78Z" fill="#4F330B"/>
  <path d="M33.7 67.7L46.6 39.7L53 48.2L33.7 67.7Z" fill="#FFF8EA"/>
  <circle cx="86" cy="22" r="4.2" fill="#B8892C"/>
</svg>
