<?xml version="1.0" encoding="UTF-8"?>
<svg width="1895" height="635" viewBox="0 0 1895 635" fill="none" xmlns="http://www.w3.org/2000/svg">
  <title>Merak Logo Pure Vector</title>
  <desc>Pure vector tracing of the approved Merak logo. Editable paths, transparent background. Brand colors: navy #001048, gold #D89808.</desc>
  <g id="merak-logo" fill-rule="evenodd" clip-rule="evenodd" transform="translate(40 40)">
    <path id="merak-navy" d="M 7.0 248.0 L 7.0 420.0 L 56.0 447.0 L 198.0 530.0 L 197.0 486.0 L 44.0 397.0 L 44.0 268.0 Z M 134.0 158.0 L 11.0 229.0 L 208.0 338.0 L 211.0 341.0 L 211.0 537.0 L 230.0 548.0 L 249.0 537.0 L 249.0 341.0 L 254.0 337.0 L 432.0 239.0 L 449.0 228.0 L 343.0 168.0 L 322.0 158.0 L 301.0 187.0 L 361.0 220.0 L 373.0 228.0 L 261.0 291.0 L 229.0 307.0 L 87.0 228.0 L 88.0 226.0 L 158.0 187.0 L 136.0 158.0 Z M 452.0 248.0 L 415.0 268.0 L 415.0 396.0 L 263.0 486.0 L 263.0 530.0 L 407.0 445.0 L 452.0 420.0 Z M 547.0 151.0 L 547.0 433.0 L 592.0 433.0 L 593.0 255.0 L 705.0 348.0 L 812.0 257.0 L 814.0 261.0 L 813.0 430.0 L 814.0 433.0 L 860.0 433.0 L 860.0 150.0 L 705.0 284.0 L 550.0 151.0 Z M 922.0 271.0 L 908.0 295.0 L 903.0 310.0 L 901.0 320.0 L 901.0 344.0 L 907.0 368.0 L 916.0 386.0 L 924.0 397.0 L 936.0 409.0 L 958.0 423.0 L 970.0 428.0 L 989.0 433.0 L 1115.0 434.0 L 1115.0 398.0 L 1011.0 398.0 L 990.0 393.0 L 972.0 383.0 L 959.0 370.0 L 949.0 352.0 L 946.0 341.0 L 946.0 323.0 L 949.0 312.0 L 957.0 297.0 L 966.0 287.0 L 978.0 278.0 L 994.0 271.0 L 1008.0 268.0 L 1031.0 268.0 L 1050.0 273.0 L 1069.0 285.0 L 1082.0 301.0 L 1089.0 318.0 L 976.0 319.0 L 988.0 354.0 L 1132.0 354.0 L 1134.0 345.0 L 1134.0 325.0 L 1129.0 301.0 L 1119.0 280.0 L 1110.0 268.0 L 1097.0 255.0 L 1081.0 244.0 L 1064.0 236.0 L 1051.0 232.0 L 1032.0 229.0 L 1001.0 229.0 L 985.0 232.0 L 970.0 237.0 L 953.0 245.0 L 937.0 256.0 Z M 1322.0 238.0 L 1245.0 238.0 L 1222.0 245.0 L 1207.0 254.0 L 1190.0 272.0 L 1182.0 286.0 L 1176.0 307.0 L 1176.0 433.0 L 1220.0 433.0 L 1220.0 317.0 L 1221.0 309.0 L 1227.0 295.0 L 1236.0 285.0 L 1242.0 281.0 L 1258.0 275.0 L 1321.0 275.0 Z M 1363.0 238.0 L 1363.0 275.0 L 1476.0 276.0 L 1489.0 282.0 L 1501.0 294.0 L 1507.0 306.0 L 1508.0 315.0 L 1377.0 316.0 L 1364.0 319.0 L 1349.0 326.0 L 1343.0 330.0 L 1332.0 342.0 L 1326.0 353.0 L 1323.0 363.0 L 1322.0 379.0 L 1324.0 390.0 L 1327.0 399.0 L 1335.0 412.0 L 1342.0 419.0 L 1356.0 428.0 L 1377.0 434.0 L 1553.0 434.0 L 1553.0 309.0 L 1548.0 289.0 L 1536.0 268.0 L 1526.0 258.0 L 1511.0 248.0 L 1493.0 241.0 L 1483.0 239.0 Z M 1366.0 369.0 L 1368.0 364.0 L 1376.0 356.0 L 1385.0 352.0 L 1507.0 352.0 L 1509.0 354.0 L 1509.0 393.0 L 1507.0 398.0 L 1390.0 398.0 L 1381.0 396.0 L 1371.0 389.0 L 1366.0 380.0 Z M 1606.0 174.0 L 1606.0 433.0 L 1651.0 433.0 L 1652.0 335.0 L 1745.0 433.0 L 1807.0 433.0 L 1712.0 335.0 L 1713.0 332.0 L 1807.0 246.0 L 1744.0 246.0 L 1652.0 333.0 L 1651.0 175.0 Z" fill="#001048"/>
    <path id="merak-star" d="M 229.0 7.0 L 223.0 47.0 L 219.0 64.0 L 219.0 70.0 L 215.0 87.0 L 215.0 93.0 L 212.0 104.0 L 180.0 109.0 L 179.0 110.0 L 167.0 111.0 L 155.0 114.0 L 149.0 114.0 L 143.0 116.0 L 130.0 117.0 L 119.0 120.0 L 114.0 120.0 L 128.0 123.0 L 134.0 123.0 L 135.0 124.0 L 141.0 124.0 L 142.0 125.0 L 148.0 125.0 L 149.0 126.0 L 155.0 126.0 L 170.0 129.0 L 177.0 129.0 L 182.0 131.0 L 212.0 135.0 L 214.0 140.0 L 215.0 151.0 L 218.0 162.0 L 219.0 173.0 L 221.0 178.0 L 225.0 203.0 L 227.0 208.0 L 227.0 213.0 L 229.0 218.0 L 229.0 222.0 L 230.0 222.0 L 232.0 207.0 L 236.0 192.0 L 236.0 187.0 L 245.0 144.0 L 245.0 139.0 L 248.0 135.0 L 267.0 133.0 L 278.0 130.0 L 279.0 131.0 L 291.0 128.0 L 304.0 127.0 L 310.0 125.0 L 318.0 125.0 L 319.0 124.0 L 346.0 120.0 L 340.0 120.0 L 335.0 118.0 L 330.0 118.0 L 317.0 115.0 L 309.0 115.0 L 304.0 113.0 L 291.0 112.0 L 286.0 110.0 L 273.0 109.0 L 267.0 107.0 L 261.0 107.0 L 247.0 104.0 L 245.0 100.0 L 245.0 95.0 L 242.0 84.0 L 243.0 83.0 L 239.0 67.0 L 239.0 62.0 L 238.0 61.0 L 238.0 56.0 L 236.0 50.0 L 236.0 45.0 L 231.0 20.0 L 231.0 14.0 Z" fill="#D89808"/>
  </g>
</svg>
